<svg xmlns="http://www.w3.org/2000/svg" fill="#d59b9b" viewBox="0 0 512 512">
  <path d="M349.33 69.33H162.67A93.41 93.41 0 0 0 69.33 162.67v186.66A93.41 93.41 0 0 0 162.67 442.67h186.66A93.41 93.41 0 0 0 442.67 349.33V162.67A93.41 93.41 0 0 0 349.33 69.33zm62.34 280a62.41 62.41 0 0 1-62.34 62.34H162.67A62.41 62.41 0 0 1 100.33 349.33V162.67a62.41 62.41 0 0 1 62.34-62.34h186.66a62.41 62.41 0 0 1 62.34 62.34z"></path>
  <path d="M377.33 162.67a28.44 28.44 0 1 1-28.44-28.44 28.44 28.44 0 0 1 28.44 28.44zM256 162.67a93.33 93.33 0 1 0 93.33 93.33A93.42 93.42 0 0 0 256 162.67zm0 153.6a60.27 60.27 0 1 1 60.27-60.27A60.34 60.34 0 0 1 256 316.27z"></path>
</svg>
