<svg xmlns="http://www.w3.org/2000/svg" viewBox="0 0 32 32" fill="none">
  <circle cx="16" cy="16" r="16" fill="#25D366"></circle>
  <path fill="#fff" d="M21.9 18.5c-.3-.1-1.7-.8-2-1-.3-.1-.5-.1-.7.1-.2.3-.8 1-.9 1.1-.2.2-.3.2-.6.1s-1.2-.5-2.3-1.4c-.9-.8-1.5-1.8-1.7-2.1-.2-.3 0-.5.1-.6s.3-.3.4-.5c.1-.2.2-.3.3-.5.1-.2.1-.3 0-.5s-.7-1.8-.9-2.4c-.2-.5-.5-.5-.7-.5h-.6c-.2 0-.5.1-.7.3-.2.2-1 1-1 2.4 0 1.4 1 2.8 1.1 3 .1.2 2 3.1 4.9 4.4.7.3 1.2.5 1.6.6.7.2 1.3.2 1.8.1.6-.1 1.7-.7 1.9-1.4.2-.7.2-1.3.1-1.4z"></path>
</svg>
